<svg width="299" height="239" viewBox="0 0 299 239" fill="none" xmlns="http://www.w3.org/2000/svg">
<rect x="0.463013" width="298.326" height="239" rx="12" fill="#D9D9D9"/>
<rect x="16.0896" y="18.6454" width="268.494" height="162.723" fill="black"/>
<ellipse cx="266.826" cy="216.117" rx="12.0751" ry="14.4078" fill="black"/>
<path d="M103.6 85.6C105.333 85.6 106.917 85.9667 108.35 86.7C109.817 87.4 110.967 88.4 111.8 89.7C112.667 91 113.1 92.45 113.1 94.05C113.1 98.2833 111.183 100.95 107.35 102.05V102.25C111.717 103.25 113.9 106.117 113.9 110.85C113.9 112.65 113.45 114.25 112.55 115.65C111.683 117.017 110.483 118.083 108.95 118.85C107.417 119.617 105.733 120 103.9 120H80.7V85.6H103.6ZM91.75 99H99.35C100.083 99 100.683 98.75 101.15 98.25C101.65 97.7167 101.9 97.0667 101.9 96.3V95.8C101.9 95.0667 101.65 94.45 101.15 93.95C100.65 93.4167 100.05 93.15 99.35 93.15H91.75V99ZM91.75 112H100.15C100.883 112 101.483 111.75 101.95 111.25C102.45 110.717 102.7 110.067 102.7 109.3V108.8C102.7 108.033 102.45 107.4 101.95 106.9C101.483 106.367 100.883 106.1 100.15 106.1H91.75V112ZM141.836 120L140.386 115.15H128.336L126.886 120H115.586L128.136 85.6H140.986L153.536 120H141.836ZM130.636 107.45H138.086L134.486 95.2H134.286L130.636 107.45ZM173.223 85C178.323 85 182.356 86.2833 185.323 88.85C188.29 91.3833 189.773 95.0167 189.773 99.75H179.223C179.223 97.75 178.69 96.1667 177.623 95C176.59 93.8333 175.106 93.25 173.173 93.25C170.94 93.25 169.29 93.95 168.223 95.35C167.19 96.75 166.673 98.7 166.673 101.2V104.4C166.673 106.867 167.19 108.817 168.223 110.25C169.29 111.65 170.906 112.35 173.073 112.35C175.206 112.35 176.823 111.8 177.923 110.7C179.023 109.6 179.573 108.05 179.573 106.05H189.773C189.773 110.75 188.323 114.35 185.423 116.85C182.556 119.35 178.49 120.6 173.223 120.6C167.356 120.6 162.906 119.1 159.873 116.1C156.873 113.1 155.373 108.667 155.373 102.8C155.373 96.9333 156.873 92.5 159.873 89.5C162.906 86.5 167.356 85 173.223 85ZM219.039 85.6H232.739L220.389 99.75L232.989 120H219.939L212.789 107.4L206.789 112.3V120H195.739V85.6H206.789V100.3L219.039 85.6Z" fill="white"/>
</svg>
